<?xml version="1.0" encoding="utf-8"?>
<!-- Generator: Adobe Illustrator 23.0.5, SVG Export Plug-In . SVG Version: 6.00 Build 0)  -->
<svg version="1.1" xmlns="http://www.w3.org/2000/svg" xmlns:xlink="http://www.w3.org/1999/xlink" x="0px" y="0px" width="234.5px"
	 height="186.9px" viewBox="0 0 234.5 186.9" style="enable-background:new 0 0 234.5 186.9;" xml:space="preserve">
<style type="text/css">
	.st0{fill:#F2F2F2;}
	.st1{fill:#61A3B4;}
	.st2{fill:url(#SVGID_1_);}
	.st3{fill:url(#SVGID_2_);}
	.st4{fill:url(#SVGID_3_);}
	.st5{fill:url(#SVGID_4_);}
	.st6{fill:url(#SVGID_5_);}
	.st7{fill:url(#SVGID_6_);}
	.st8{fill:url(#SVGID_7_);}
	.st9{fill:url(#SVGID_8_);}
	.st10{fill:url(#SVGID_9_);}
	.st11{fill:#FFFFFF;}
</style>
<g id="BACKGROUND">
</g>
<g id="OBJECTS">
	<g>
		<g>
			<g>
				
					<linearGradient id="SVGID_1_" gradientUnits="userSpaceOnUse" x1="1941.48" y1="4.8438" x2="1941.48" y2="53.7189" gradientTransform="matrix(-1 0 0 1 2083.9165 0)">
					<stop  offset="0" style="stop-color:#58595B"/>
					<stop  offset="1" style="stop-color:#000000"/>
				</linearGradient>
				<path class="st2" d="M143.2,5.6v57.8h-1.6V5.6c0-0.6,0.6-1,1.1-0.8l0,0C143,5,143.2,5.3,143.2,5.6z"/>
				
					<linearGradient id="SVGID_2_" gradientUnits="userSpaceOnUse" x1="1947.314" y1="5.4545" x2="1947.314" y2="53.8198" gradientTransform="matrix(-1 0 0 1 2083.9165 0)">
					<stop  offset="0" style="stop-color:#58595B"/>
					<stop  offset="1" style="stop-color:#000000"/>
				</linearGradient>
				<path class="st3" d="M133.3,63.4V5.8c0-0.3,0.2-0.4,0.4-0.4c0.1,0,0.1,0,0.2,0c0.2,0.1,0.3,0.2,0.3,0.4v57.6H133.3z M136.2,63.4
					V7.1c0-0.3,0.2-0.4,0.4-0.4c0.1,0,0.1,0,0.2,0c0.2,0.1,0.3,0.2,0.3,0.4v56.3H136.2z M139.1,63.4v-55c0-0.3,0.2-0.4,0.4-0.4
					c0.1,0,0.1,0,0.2,0c0.2,0.1,0.3,0.2,0.3,0.4v55H139.1z"/>
			</g>
			
				<linearGradient id="SVGID_3_" gradientUnits="userSpaceOnUse" x1="1971.2617" y1="-9.094947e-13" x2="1971.2617" y2="49.703" gradientTransform="matrix(-1 0 0 1 2083.9165 0)">
				<stop  offset="0" style="stop-color:#58595B"/>
				<stop  offset="1" style="stop-color:#000000"/>
			</linearGradient>
			<path class="st4" d="M95.8,13l33.5-12.9c0.4-0.1,0.8-0.1,1.2,0l0,0c0.6,0.2,1,0.8,1,1.5v61.8H93.8V15.9
				C93.8,14.6,94.6,13.5,95.8,13z"/>
		</g>
		<g>
			<g>
				<linearGradient id="SVGID_4_" gradientUnits="userSpaceOnUse" x1="67.2479" y1="45.0039" x2="67.2479" y2="149.7586">
					<stop  offset="0" style="stop-color:#C7DEE4"/>
					<stop  offset="1" style="stop-color:#61A3B4"/>
				</linearGradient>
				<path class="st5" d="M65.9,50.6V120h2.7V50.6c0-0.9-0.9-1.6-1.8-1.3l0,0C66.2,49.5,65.9,50,65.9,50.6z"/>
				<linearGradient id="SVGID_5_" gradientUnits="userSpaceOnUse" x1="76.9059" y1="45.0039" x2="76.9059" y2="149.7585">
					<stop  offset="0" style="stop-color:#C7DEE4"/>
					<stop  offset="1" style="stop-color:#61A3B4"/>
				</linearGradient>
				<path class="st6" d="M81,120V51c0-0.3,0.2-0.6,0.5-0.7c0.1,0,0.2,0,0.3,0c0.3,0,0.7,0.3,0.7,0.7v69H81z M76.2,120V53.1
					c0-0.3,0.2-0.6,0.5-0.7c0.1,0,0.2,0,0.3,0c0.3,0,0.7,0.3,0.7,0.7V120H76.2z M71.4,120V55.2c0-0.3,0.2-0.6,0.5-0.7
					c0.1,0,0.2,0,0.3,0c0.3,0,0.7,0.3,0.7,0.7V120H71.4z"/>
			</g>
			<linearGradient id="SVGID_6_" gradientUnits="userSpaceOnUse" x1="116.5497" y1="45.0039" x2="116.5497" y2="149.7583">
				<stop  offset="0" style="stop-color:#C7DEE4"/>
				<stop  offset="1" style="stop-color:#61A3B4"/>
			</linearGradient>
			<path class="st7" d="M144.4,62.8L89,41.5c-0.6-0.2-1.3-0.2-1.9,0l0,0c-1,0.4-1.7,1.4-1.7,2.5V120h62.3V67.6
				C147.7,65.5,146.4,63.6,144.4,62.8z"/>
		</g>
		<g>
			<g>
				
					<linearGradient id="SVGID_7_" gradientUnits="userSpaceOnUse" x1="1912.8007" y1="75.7771" x2="1912.8007" y2="112.6563" gradientTransform="matrix(-1 0 0 1 2083.9165 0)">
					<stop  offset="0" style="stop-color:#FFC82E"/>
					<stop  offset="1" style="stop-color:#D47D1A"/>
				</linearGradient>
				<path class="st8" d="M172.2,76.8V120h-2.1V76.8c0-0.7,0.7-1.3,1.4-1l0,0C171.9,76,172.2,76.4,172.2,76.8z"/>
				
					<linearGradient id="SVGID_8_" gradientUnits="userSpaceOnUse" x1="1920.4045" y1="76.5731" x2="1920.4045" y2="112.7879" gradientTransform="matrix(-1 0 0 1 2083.9165 0)">
					<stop  offset="0" style="stop-color:#FFC82E"/>
					<stop  offset="1" style="stop-color:#D47D1A"/>
				</linearGradient>
				<path class="st9" d="M159.1,120V77.1c0-0.3,0.3-0.6,0.6-0.6c0.1,0,0.1,0,0.2,0c0.2,0.1,0.4,0.3,0.4,0.5V120H159.1z M162.9,120
					V78.8c0-0.3,0.3-0.6,0.6-0.6c0.1,0,0.1,0,0.2,0c0.2,0.1,0.4,0.3,0.4,0.5V120H162.9z M166.8,120V80.4c0-0.3,0.3-0.6,0.6-0.6
					c0.1,0,0.1,0,0.2,0c0.2,0.1,0.4,0.3,0.4,0.5V120H166.8z"/>
			</g>
			
				<linearGradient id="SVGID_9_" gradientUnits="userSpaceOnUse" x1="1951.6171" y1="69.4972" x2="1951.6171" y2="109.059" gradientTransform="matrix(-1 0 0 1 2083.9165 0)">
				<stop  offset="0" style="stop-color:#FFC82E"/>
				<stop  offset="1" style="stop-color:#D47D1A"/>
			</linearGradient>
			<path class="st10" d="M110.3,86.4L154,69.6c0.5-0.2,1-0.2,1.5,0l0,0c0.8,0.3,1.4,1.1,1.4,2V120h-49V90.2
				C107.8,88.5,108.8,87,110.3,86.4z"/>
		</g>
	</g>
</g>
<g id="TEXTS">
	<g>
		<path class="st11" d="M31.2,157.2c-1.4-0.7-2.4-1.8-3.2-3.1c-0.8-1.3-1.2-2.8-1.2-4.4c0-1.6,0.4-3.1,1.2-4.4s1.8-2.3,3.2-3.1
			s2.9-1.1,4.6-1.1c1.3,0,2.5,0.2,3.6,0.7c1.1,0.4,2,1.1,2.8,2l-1.6,1.5c-1.3-1.3-2.8-2-4.7-2c-1.2,0-2.4,0.3-3.4,0.8
			c-1,0.6-1.8,1.3-2.4,2.3c-0.6,1-0.9,2.1-0.9,3.3c0,1.2,0.3,2.3,0.9,3.3c0.6,1,1.4,1.8,2.4,2.3c1,0.6,2.1,0.8,3.4,0.8
			c1.9,0,3.4-0.7,4.7-2l1.6,1.5c-0.8,0.9-1.7,1.5-2.8,2c-1.1,0.4-2.3,0.7-3.6,0.7C34.1,158.3,32.6,157.9,31.2,157.2z"/>
		<path class="st11" d="M60,141.3v16.8h-2.4v-14.7h-9.7v14.7h-2.4v-16.8H60z"/>
		<path class="st11" d="M76.9,142.9c1.2,1,1.9,2.5,1.9,4.3c0,1.8-0.6,3.3-1.9,4.3c-1.2,1-3,1.6-5.1,1.6h-4.2v5.1h-2.4v-16.8h6.6
			C73.9,141.3,75.6,141.8,76.9,142.9z M75.1,150c0.8-0.6,1.2-1.6,1.2-2.8c0-1.2-0.4-2.1-1.2-2.8c-0.8-0.6-2-1-3.5-1h-4.1v7.5h4.1
			C73.2,150.9,74.3,150.6,75.1,150z"/>
		<path class="st11" d="M92.2,153.9h-8.9l-1.8,4.2h-2.5l7.6-16.8h2.4l7.6,16.8H94L92.2,153.9z M91.3,152l-3.6-8.2l-3.6,8.2H91.3z"/>
		<path class="st11" d="M112.5,150.8c0.6,0.7,0.9,1.6,0.9,2.7c0,1.5-0.5,2.6-1.6,3.4c-1.1,0.8-2.6,1.2-4.6,1.2h-7.7v-16.8h7.2
			c1.8,0,3.3,0.4,4.3,1.1c1,0.7,1.5,1.8,1.5,3.2c0,0.9-0.2,1.7-0.7,2.3c-0.5,0.6-1.1,1.1-1.9,1.4C111,149.7,111.9,150.1,112.5,150.8
			z M101.8,148.7h4.7c1.2,0,2.1-0.2,2.7-0.7c0.6-0.5,0.9-1.1,0.9-2c0-0.9-0.3-1.6-0.9-2.1c-0.6-0.5-1.5-0.7-2.7-0.7h-4.7V148.7z
			 M110.9,153.3c0-1-0.3-1.7-1-2.1s-1.6-0.7-2.9-0.7h-5.3v5.7h5.3C109.6,156.2,110.9,155.2,110.9,153.3z"/>
		<path class="st11" d="M120.3,157.2c-1.4-0.7-2.4-1.8-3.2-3.1c-0.8-1.3-1.2-2.8-1.2-4.4c0-1.6,0.4-3.1,1.2-4.4
			c0.8-1.3,1.8-2.3,3.2-3.1s2.9-1.1,4.6-1.1c1.7,0,3.2,0.4,4.6,1.1s2.4,1.8,3.2,3.1c0.8,1.3,1.2,2.8,1.2,4.4c0,1.6-0.4,3.1-1.2,4.4
			c-0.8,1.3-1.8,2.3-3.2,3.1s-2.9,1.1-4.6,1.1C123.2,158.3,121.7,157.9,120.3,157.2z M128.2,155.3c1-0.6,1.8-1.3,2.3-2.3
			c0.6-1,0.9-2.1,0.9-3.3c0-1.2-0.3-2.3-0.9-3.3c-0.6-1-1.3-1.8-2.3-2.3c-1-0.6-2.1-0.8-3.3-0.8s-2.3,0.3-3.3,0.8
			c-1,0.6-1.8,1.3-2.4,2.3c-0.6,1-0.9,2.1-0.9,3.3c0,1.2,0.3,2.3,0.9,3.3c0.6,1,1.4,1.8,2.4,2.3c1,0.6,2.1,0.8,3.3,0.8
			S127.3,155.9,128.2,155.3z"/>
		<path class="st11" d="M149.8,141.3v16.8h-2.4v-6.6c-1.8,0.7-3.4,1-4.9,1c-2,0-3.6-0.5-4.8-1.5c-1.1-1-1.7-2.4-1.7-4.2v-5.4h2.4
			v5.2c0,1.2,0.4,2.2,1.1,2.9c0.8,0.7,1.8,1,3.2,1c1.6,0,3.1-0.4,4.7-1.1v-8H149.8z"/>
		<path class="st11" d="M169.5,141.3v16.8h-2.4v-7.5h-9.6v7.5H155v-16.8h2.4v7.2h9.6v-7.2H169.5z"/>
		<path class="st11" d="M174.7,141.3h2.4v13l9.9-13h2.2v16.8h-2.4v-12.9l-10,12.9h-2.2V141.3z"/>
		<path class="st11" d="M200.3,150.7h-3.5v7.4h-2.4v-16.8h2.4v7.3h3.6l5.3-7.3h2.6l-6,8.1l6.3,8.7h-2.7L200.3,150.7z"/>
		<path class="st11" d="M13.2,182.7H4.3l-1.8,4.2H0l7.6-16.8H10l7.6,16.8h-2.5L13.2,182.7z M12.4,180.8l-3.6-8.2l-3.6,8.2H12.4z"/>
		<path class="st11" d="M33.6,179.6c0.6,0.7,0.9,1.6,0.9,2.7c0,1.5-0.5,2.6-1.6,3.4c-1.1,0.8-2.6,1.2-4.6,1.2h-7.7v-16.8h7.2
			c1.8,0,3.3,0.4,4.3,1.1c1,0.7,1.5,1.8,1.5,3.2c0,0.9-0.2,1.7-0.7,2.3c-0.5,0.6-1.1,1.1-1.9,1.4C32.1,178.5,33,178.9,33.6,179.6z
			 M22.9,177.5h4.7c1.2,0,2.1-0.2,2.7-0.7c0.6-0.5,0.9-1.1,0.9-2c0-0.9-0.3-1.6-0.9-2.1c-0.6-0.5-1.5-0.7-2.7-0.7h-4.7V177.5z
			 M32,182.1c0-1-0.3-1.7-1-2.1s-1.6-0.7-2.9-0.7h-5.3v5.7h5.3C30.7,185,32,184,32,182.1z"/>
		<path class="st11" d="M49.8,172.2H44v14.7h-2.4v-14.7h-5.7v-2.1h13.8V172.2z"/>
		<path class="st11" d="M55.4,186c-1.4-0.7-2.4-1.8-3.2-3.1c-0.8-1.3-1.2-2.8-1.2-4.4c0-1.6,0.4-3.1,1.2-4.4
			c0.8-1.3,1.8-2.3,3.2-3.1s2.9-1.1,4.6-1.1c1.7,0,3.2,0.4,4.6,1.1s2.4,1.8,3.2,3.1c0.8,1.3,1.2,2.8,1.2,4.4c0,1.6-0.4,3.1-1.2,4.4
			c-0.8,1.3-1.8,2.3-3.2,3.1s-2.9,1.1-4.6,1.1C58.3,187.1,56.8,186.7,55.4,186z M63.3,184.1c1-0.6,1.8-1.3,2.3-2.3
			c0.6-1,0.9-2.1,0.9-3.3c0-1.2-0.3-2.3-0.9-3.3c-0.6-1-1.3-1.8-2.3-2.3c-1-0.6-2.1-0.8-3.3-0.8s-2.3,0.3-3.3,0.8
			c-1,0.6-1.8,1.3-2.4,2.3c-0.6,1-0.9,2.1-0.9,3.3c0,1.2,0.3,2.3,0.9,3.3c0.6,1,1.4,1.8,2.4,2.3c1,0.6,2.1,0.8,3.3,0.8
			S62.3,184.7,63.3,184.1z"/>
		<path class="st11" d="M85.8,179.6c0.6,0.7,0.9,1.6,0.9,2.7c0,1.5-0.5,2.6-1.6,3.4c-1.1,0.8-2.6,1.2-4.6,1.2h-7.7v-16.8H80
			c1.8,0,3.3,0.4,4.3,1.1c1,0.7,1.5,1.8,1.5,3.2c0,0.9-0.2,1.7-0.7,2.3c-0.5,0.6-1.1,1.1-1.9,1.4C84.4,178.5,85.3,178.9,85.8,179.6z
			 M75.2,177.5h4.7c1.2,0,2.1-0.2,2.7-0.7c0.6-0.5,0.9-1.1,0.9-2c0-0.9-0.3-1.6-0.9-2.1c-0.6-0.5-1.5-0.7-2.7-0.7h-4.7V177.5z
			 M84.3,182.1c0-1-0.3-1.7-1-2.1s-1.6-0.7-2.9-0.7h-5.3v5.7h5.3C83,185,84.3,184,84.3,182.1z"/>
		<path class="st11" d="M104.4,170.1v16.8h-2.4v-14.7h-7.4l-0.2,4.9c-0.1,2.3-0.3,4.2-0.6,5.6c-0.3,1.4-0.8,2.5-1.4,3.3
			c-0.6,0.7-1.5,1.1-2.6,1.1c-0.5,0-1-0.1-1.5-0.2l0.2-2.1c0.3,0.1,0.5,0.1,0.8,0.1c0.7,0,1.2-0.3,1.7-0.8s0.7-1.4,0.9-2.5
			c0.2-1.1,0.3-2.6,0.4-4.4l0.3-7.1H104.4z"/>
		<path class="st11" d="M120.6,182.7h-8.9l-1.8,4.2h-2.5l7.6-16.8h2.4l7.6,16.8h-2.5L120.6,182.7z M119.8,180.8l-3.6-8.2l-3.6,8.2
			H119.8z"/>
		<path class="st11" d="M144,184.8v5.8h-2.2v-3.7h-13.8l0,3.7h-2.2l0-5.8h0.8c1.1-0.1,1.8-0.9,2.2-2.5c0.4-1.6,0.7-3.9,0.8-6.8
			l0.2-5.4h11.8v14.7H144z M131.1,181.6c-0.3,1.6-0.8,2.6-1.4,3.2h9.5v-12.6h-7.4l-0.1,3.5C131.5,178.1,131.3,180,131.1,181.6z"/>
		<path class="st11" d="M159.4,184.8v2.1h-12.2v-16.8h11.9v2.1h-9.5v5.2h8.4v2h-8.4v5.4H159.4z"/>
		<path class="st11" d="M176.9,170.1v16.8h-2.4v-14.7h-7.4l-0.2,4.9c-0.1,2.3-0.3,4.2-0.6,5.6c-0.3,1.4-0.8,2.5-1.4,3.3
			c-0.6,0.7-1.5,1.1-2.6,1.1c-0.5,0-1-0.1-1.5-0.2l0.2-2.1c0.3,0.1,0.5,0.1,0.8,0.1c0.7,0,1.2-0.3,1.7-0.8s0.7-1.4,0.9-2.5
			c0.2-1.1,0.3-2.6,0.4-4.4l0.3-7.1H176.9z"/>
		<path class="st11" d="M194.1,177.3c1.1,0.9,1.6,2.2,1.6,4c0,1.8-0.6,3.2-1.7,4.2c-1.1,1-2.8,1.4-4.9,1.4h-6.9v-16.8h2.4v5.9h5
			C191.5,176,193.1,176.4,194.1,177.3z M192.2,184.1c0.7-0.6,1.1-1.5,1.1-2.7c0-2.3-1.4-3.5-4.3-3.5h-4.5v7.2h4.5
			C190.4,185,191.5,184.7,192.2,184.1z"/>
		<path class="st11" d="M216,184.8v5.9h-2.2v-3.8h-14.5v-16.8h2.4v14.7h9.4v-14.7h2.4v14.7H216z"/>
		<path class="st11" d="M230.2,182.7h-8.9l-1.8,4.2h-2.5l7.6-16.8h2.4l7.6,16.8H232L230.2,182.7z M229.3,180.8l-3.6-8.2l-3.6,8.2
			H229.3z"/>
	</g>
</g>
</svg>
